0
SECTION
2
HEADER
999
DXF File Generated With Silo
0
ENDSEC
0
SECTION
2
TABLES
0
ENDSEC
0
SECTION
2
BLOCKS
0
ENDSEC
0
SECTION
2
ENTITIES
0
POLYLINE
8
Torso
66
1
70
64
62
256
0
VERTEX
8
Torso
10
0.496883
20
0.425849
30
0.493067
70
192
0
VERTEX
8
Torso
10
0.550109
20
0.569502
30
1.18851
70
192
0
VERTEX
8
Torso
10
0.614926
20
-0.36138
30
0.498908
70
192
0
VERTEX
8
Torso
10
0.471898
20
-0.504255
30
1.16472
70
192
0
VERTEX
8
Torso
10
0.36741
20
-0.256493
30
1.89635
70
192
0
VERTEX
8
Torso
10
0.405986
20
0.299881
30
1.89635
70
192
0
VERTEX
8
Torso
10
-0.496883
20
0.425849
30
0.493067
70
192
0
VERTEX
8
Torso
10
-0.550109
20
0.569502
30
1.18851
70
192
0
VERTEX
8
Torso
10
-0.614926
20
-0.36138
30
0.498908
70
192
0
VERTEX
8
Torso
10
-0.471898
20
-0.504255
30
1.16472
70
192
0
VERTEX
8
Torso
10
-0.36741
20
-0.256493
30
1.89635
70
192
0
VERTEX
8
Torso
10
-0.405986
20
0.299881
30
1.89635
70
192
0
VERTEX
8
Torso
10
0.405986
20
0.299881
30
2.04035
70
192
0
VERTEX
8
Torso
10
0.36741
20
-0.256493
30
2.04035
70
192
0
VERTEX
8
Torso
10
-0.405986
20
0.299881
30
2.04035
70
192
0
VERTEX
8
Torso
10
-0.36741
20
-0.256493
30
2.04035
70
192
0
VERTEX
8
Torso
10
0.405986
20
0.299881
30
2.19306
70
192
0
VERTEX
8
Torso
10
0.181378
20
-0.254328
30
2.23022
70
192
0
VERTEX
8
Torso
10
-0.405986
20
0.299881
30
2.19306
70
192
0
VERTEX
8
Torso
10
-0.181378
20
-0.254328
30
2.23022
70
192
0
VERTEX
8
Torso
10
0.515603
20
0.396804
30
2.43642
70
192
0
VERTEX
8
Torso
10
0.205812
20
-0.514992
30
2.43642
70
192
0
VERTEX
8
Torso
10
-0.515603
20
0.396804
30
2.43642
70
192
0
VERTEX
8
Torso
10
-0.205812
20
-0.514992
30
2.43642
70
192
0
VERTEX
8
Torso
10
0.405986
20
0.299881
30
3.35944
70
192
0
VERTEX
8
Torso
10
0.162056
20
-0.418069
30
3.35944
70
192
0
VERTEX
8
Torso
10
-0.405986
20
0.299881
30
3.35944
70
192
0
VERTEX
8
Torso
10
-0.162056
20
-0.418069
30
3.35944
70
192
0
VERTEX
8
Torso
10
0.697606
20
0.337838
30
1.42521
70
192
0
VERTEX
8
Torso
10
0.697606
20
-0.337838
30
1.42521
70
192
0
VERTEX
8
Torso
10
0.492285
20
0.202622
30
1.82317
70
192
0
VERTEX
8
Torso
10
0.46622
20
-0.173306
30
1.82317
70
192
0
VERTEX
8
Torso
10
-0.46622
20
-0.173306
30
1.82317
70
192
0
VERTEX
8
Torso
10
-0.492285
20
0.202622
30
1.82317
70
192
0
VERTEX
8
Torso
10
-0.697606
20
0.337838
30
1.42521
70
192
0
VERTEX
8
Torso
10
-0.697606
20
-0.337838
30
1.42521
70
192
0
VERTEX
8
Torso
10
1.20923
20
0.190541
30
1.80259
70
192
0
VERTEX
8
Torso
10
1.2088
20
-0.19416
30
1.79896
70
192
0
VERTEX
8
Torso
10
1.0908
20
0.11645
30
2.02767
70
192
0
VERTEX
8
Torso
10
1.07582
20
-0.099601
30
2.02767
70
192
0
VERTEX
8
Torso
10
-1.07582
20
-0.099601
30
2.02767
70
192
0
VERTEX
8
Torso
10
-1.0908
20
0.11645
30
2.02767
70
192
0
VERTEX
8
Torso
10
-1.20923
20
0.190541
30
1.80259
70
192
0
VERTEX
8
Torso
10
-1.2088
20
-0.19416
30
1.79896
70
192
0
VERTEX
8
Torso
10
1.30087
20
0.196073
30
1.79787
70
192
0
VERTEX
8
Torso
10
1.26738
20
-0.195726
30
1.82279
70
192
0
VERTEX
8
Torso
10
1.14124
20
0.125385
30
2.08331
70
192
0
VERTEX
8
Torso
10
1.12686
20
-0.101209
30
2.07998
70
192
0
VERTEX
8
Torso
10
-1.12686
20
-0.101209
30
2.07998
70
192
0
VERTEX
8
Torso
10
-1.14124
20
0.125385
30
2.08331
70
192
0
VERTEX
8
Torso
10
-1.30087
20
0.196073
30
1.79787
70
192
0
VERTEX
8
Torso
10
-1.26738
20
-0.195726
30
1.82279
70
192
0
VERTEX
8
Torso
10
1.3568
20
0.159555
30
1.85742
70
192
0
VERTEX
8
Torso
10
1.35667
20
-0.148674
30
1.86844
70
192
0
VERTEX
8
Torso
10
1.22617
20
0.109696
30
2.09614
70
192
0
VERTEX
8
Torso
10
1.19648
20
-0.0889548
30
2.08037
70
192
0
VERTEX
8
Torso
10
-1.19648
20
-0.0889548
30
2.08037
70
192
0
VERTEX
8
Torso
10
-1.22617
20
0.109696
30
2.09614
70
192
0
VERTEX
8
Torso
10
-1.3568
20
0.159555
30
1.85742
70
192
0
VERTEX
8
Torso
10
-1.35667
20
-0.148674
30
1.86844
70
192
0
VERTEX
8
Torso
10
1.63128
20
0.154475
30
2.00592
70
192
0
VERTEX
8
Torso
10
1.63128
20
-0.154475
30
2.00592
70
192
0
VERTEX
8
Torso
10
1.50454
20
0.125075
30
2.25158
70
192
0
VERTEX
8
Torso
10
1.48845
20
-0.106979
30
2.25158
70
192
0
VERTEX
8
Torso
10
-1.48845
20
-0.106979
30
2.25158
70
192
0
VERTEX
8
Torso
10
-1.50454
20
0.125075
30
2.25158
70
192
0
VERTEX
8
Torso
10
-1.63128
20
0.154475
30
2.00592
70
192
0
VERTEX
8
Torso
10
-1.63128
20
-0.154475
30
2.00592
70
192
0
VERTEX
8
Torso
10
1.7823
20
0.263936
30
2.04142
70
192
0
VERTEX
8
Torso
10
1.7823
20
-0.263936
30
2.04142
70
192
0
VERTEX
8
Torso
10
1.62189
20
0.158299
30
2.35233
70
192
0
VERTEX
8
Torso
10
1.60153
20
-0.135395
30
2.35233
70
192
0
VERTEX
8
Torso
10
-1.60153
20
-0.135395
30
2.35233
70
192
0
VERTEX
8
Torso
10
-1.62189
20
0.158299
30
2.35233
70
192
0
VERTEX
8
Torso
10
-1.7823
20
0.263936
30
2.04142
70
192
0
VERTEX
8
Torso
10
-1.7823
20
-0.263936
30
2.04142
70
192
0
VERTEX
8
Torso
10
1.96317
20
0.183608
30
2.19625
70
192
0
VERTEX
8
Torso
10
1.96317
20
-0.183608
30
2.19625
70
192
0
VERTEX
8
Torso
10
1.8492
20
0.113859
30
2.40945
70
192
0
VERTEX
8
Torso
10
1.83742
20
-0.0941879
30
2.41253
70
192
0
VERTEX
8
Torso
10
-1.83742
20
-0.0941879
30
2.41253
70
192
0
VERTEX
8
Torso
10
-1.8492
20
0.113859
30
2.40945
70
192
0
VERTEX
8
Torso
10
-1.96317
20
0.183608
30
2.19625
70
192
0
VERTEX
8
Torso
10
-1.96317
20
-0.183608
30
2.19625
70
192
0
VERTEX
8
Torso
10
0.175807
20
0.359867
30
-0.030456
70
192
0
VERTEX
8
Torso
10
0.174146
20
-0.358976
30
-0.02692
70
192
0
VERTEX
8
Torso
10
-0.174146
20
-0.358976
30
-0.02692
70
192
0
VERTEX
8
Torso
10
-0.175807
20
0.359867
30
-0.030456
70
192
0
VERTEX
8
Torso
10
0.912176
20
0.230846
30
-0.276441
70
192
0
VERTEX
8
Torso
10
0.925485
20
-0.184813
30
-0.289044
70
192
0
VERTEX
8
Torso
10
0.61582
20
-0.178633
30
-0.53247
70
192
0
VERTEX
8
Torso
10
0.614401
20
0.234849
30
-0.531523
70
192
0
VERTEX
8
Torso
10
-0.912176
20
0.230846
30
-0.276441
70
192
0
VERTEX
8
Torso
10
-0.925485
20
-0.184813
30
-0.289044
70
192
0
VERTEX
8
Torso
10
-0.614401
20
0.234849
30
-0.531523
70
192
0
VERTEX
8
Torso
10
-0.61582
20
-0.178633
30
-0.53247
70
192
0
VERTEX
8
Torso
10
0.955457
20
0.233321
30
-0.401616
70
192
0
VERTEX
8
Torso
10
0.955457
20
-0.17967
30
-0.397799
70
192
0
VERTEX
8
Torso
10
0.641048
20
-0.177351
30
-0.587756
70
192
0
VERTEX
8
Torso
10
0.641047
20
0.235641
30
-0.591572
70
192
0
VERTEX
8
Torso
10
-0.955457
20
0.233321
30
-0.401616
70
192
0
VERTEX
8
Torso
10
-0.955457
20
-0.17967
30
-0.397799
70
192
0
VERTEX
8
Torso
10
-0.641047
20
0.235641
30
-0.591572
70
192
0
VERTEX
8
Torso
10
-0.641048
20
-0.177351
30
-0.587756
70
192
0
VERTEX
8
Torso
10
0.982155
20
0.2359
30
-0.55442
70
192
0
VERTEX
8
Torso
10
0.982156
20
-0.177091
30
-0.554419
70
192
0
VERTEX
8
Torso
10
0.660395
20
-0.176896
30
-0.628835
70
192
0
VERTEX
8
Torso
10
0.660394
20
0.236095
30
-0.628839
70
192
0
VERTEX
8
Torso
10
-0.982155
20
0.2359
30
-0.55442
70
192
0
VERTEX
8
Torso
10
-0.982156
20
-0.177091
30
-0.554419
70
192
0
VERTEX
8
Torso
10
-0.660394
20
0.236095
30
-0.628839
70
192
0
VERTEX
8
Torso
10
-0.660395
20
-0.176896
30
-0.628835
70
192
0
VERTEX
8
Torso
10
0.986988
20
0.236334
30
-0.676603
70
192
0
VERTEX
8
Torso
10
0.986988
20
-0.176658
30
-0.676603
70
192
0
VERTEX
8
Torso
10
0.665235
20
-0.176658
30
-0.708844
70
192
0
VERTEX
8
Torso
10
0.665235
20
0.236334
30
-0.708844
70
192
0
VERTEX
8
Torso
10
-0.986988
20
0.236334
30
-0.676603
70
192
0
VERTEX
8
Torso
10
-0.986988
20
-0.176658
30
-0.676603
70
192
0
VERTEX
8
Torso
10
-0.665235
20
0.236334
30
-0.708844
70
192
0
VERTEX
8
Torso
10
-0.665235
20
-0.176658
30
-0.708844
70
192
0
VERTEX
8
Torso
10
1.07083
20
0.236334
30
-1.15708
70
192
0
VERTEX
8
Torso
10
1.07083
20
-0.176658
30
-1.15708
70
192
0
VERTEX
8
Torso
10
0.749081
20
-0.176658
30
-1.16036
70
192
0
VERTEX
8
Torso
10
0.749081
20
0.236334
30
-1.16036
70
192
0
VERTEX
8
Torso
10
-1.07083
20
0.236334
30
-1.15708
70
192
0
VERTEX
8
Torso
10
-1.07083
20
-0.176658
30
-1.15708
70
192
0
VERTEX
8
Torso
10
-0.749081
20
0.236334
30
-1.16036
70
192
0
VERTEX
8
Torso
10
-0.749081
20
-0.176658
30
-1.16036
70
192
0
VERTEX
8
Torso
10
0
20
0
30
0
70
128
71
8
72
7
73
1
74
2
0
VERTEX
8
Torso
10
0
20
0
30
0
70
128
71
9
72
10
73
4
74
3
0
VERTEX
8
Torso
10
0
20
0
30
0
70
128
71
88
72
87
73
86
74
85
0
VERTEX
8
Torso
10
0
20
0
30
0
70
128
71
2
72
1
73
3
74
4
0
VERTEX
8
Torso
10
0
20
0
30
0
70
128
71
10
72
9
73
7
74
8
0
VERTEX
8
Torso
10
0
20
0
30
0
70
128
71
28
72
27
73
25
74
26
0
VERTEX
8
Torso
10
0
20
0
30
0
70
128
71
10
72
11
73
5
74
4
0
VERTEX
8
Torso
10
0
20
0
30
0
70
128
71
80
72
79
73
77
74
78
0
VERTEX
8
Torso
10
0
20
0
30
0
70
128
71
84
72
83
73
82
74
81
0
VERTEX
8
Torso
10
0
20
0
30
0
70
128
71
12
72
8
73
2
74
6
0
VERTEX
8
Torso
10
0
20
0
30
0
70
128
71
14
72
13
73
6
74
5
0
VERTEX
8
Torso
10
0
20
0
30
0
70
128
71
13
72
15
73
12
74
6
0
VERTEX
8
Torso
10
0
20
0
30
0
70
128
71
15
72
16
73
11
74
12
0
VERTEX
8
Torso
10
0
20
0
30
0
70
128
71
16
72
14
73
5
74
11
0
VERTEX
8
Torso
10
0
20
0
30
0
70
128
71
18
72
17
73
13
74
14
0
VERTEX
8
Torso
10
0
20
0
30
0
70
128
71
17
72
19
73
15
74
13
0
VERTEX
8
Torso
10
0
20
0
30
0
70
128
71
19
72
20
73
16
74
15
0
VERTEX
8
Torso
10
0
20
0
30
0
70
128
71
20
72
18
73
14
74
16
0
VERTEX
8
Torso
10
0
20
0
30
0
70
128
71
22
72
21
73
17
74
18
0
VERTEX
8
Torso
10
0
20
0
30
0
70
128
71
21
72
23
73
19
74
17
0
VERTEX
8
Torso
10
0
20
0
30
0
70
128
71
23
72
24
73
20
74
19
0
VERTEX
8
Torso
10
0
20
0
30
0
70
128
71
24
72
22
73
18
74
20
0
VERTEX
8
Torso
10
0
20
0
30
0
70
128
71
26
72
25
73
21
74
22
0
VERTEX
8
Torso
10
0
20
0
30
0
70
128
71
25
72
27
73
23
74
21
0
VERTEX
8
Torso
10
0
20
0
30
0
70
128
71
27
72
28
73
24
74
23
0
VERTEX
8
Torso
10
0
20
0
30
0
70
128
71
28
72
26
73
22
74
24
0
VERTEX
8
Torso
10
0
20
0
30
0
70
128
71
30
72
29
73
2
74
4
0
VERTEX
8
Torso
10
0
20
0
30
0
70
128
71
29
72
31
73
6
74
2
0
VERTEX
8
Torso
10
0
20
0
30
0
70
128
71
31
72
32
73
5
74
6
0
VERTEX
8
Torso
10
0
20
0
30
0
70
128
71
32
72
30
73
4
74
5
0
VERTEX
8
Torso
10
0
20
0
30
0
70
128
71
33
72
34
73
12
74
11
0
VERTEX
8
Torso
10
0
20
0
30
0
70
128
71
34
72
35
73
8
74
12
0
VERTEX
8
Torso
10
0
20
0
30
0
70
128
71
35
72
36
73
10
74
8
0
VERTEX
8
Torso
10
0
20
0
30
0
70
128
71
36
72
33
73
11
74
10
0
VERTEX
8
Torso
10
0
20
0
30
0
70
128
71
38
72
37
73
29
74
30
0
VERTEX
8
Torso
10
0
20
0
30
0
70
128
71
37
72
39
73
31
74
29
0
VERTEX
8
Torso
10
0
20
0
30
0
70
128
71
39
72
40
73
32
74
31
0
VERTEX
8
Torso
10
0
20
0
30
0
70
128
71
40
72
38
73
30
74
32
0
VERTEX
8
Torso
10
0
20
0
30
0
70
128
71
41
72
42
73
34
74
33
0
VERTEX
8
Torso
10
0
20
0
30
0
70
128
71
42
72
43
73
35
74
34
0
VERTEX
8
Torso
10
0
20
0
30
0
70
128
71
43
72
44
73
36
74
35
0
VERTEX
8
Torso
10
0
20
0
30
0
70
128
71
44
72
41
73
33
74
36
0
VERTEX
8
Torso
10
0
20
0
30
0
70
128
71
46
72
45
73
37
74
38
0
VERTEX
8
Torso
10
0
20
0
30
0
70
128
71
45
72
47
73
39
74
37
0
VERTEX
8
Torso
10
0
20
0
30
0
70
128
71
47
72
48
73
40
74
39
0
VERTEX
8
Torso
10
0
20
0
30
0
70
128
71
48
72
46
73
38
74
40
0
VERTEX
8
Torso
10
0
20
0
30
0
70
128
71
49
72
50
73
42
74
41
0
VERTEX
8
Torso
10
0
20
0
30
0
70
128
71
50
72
51
73
43
74
42
0
VERTEX
8
Torso
10
0
20
0
30
0
70
128
71
51
72
52
73
44
74
43
0
VERTEX
8
Torso
10
0
20
0
30
0
70
128
71
52
72
49
73
41
74
44
0
VERTEX
8
Torso
10
0
20
0
30
0
70
128
71
54
72
53
73
45
74
46
0
VERTEX
8
Torso
10
0
20
0
30
0
70
128
71
53
72
55
73
47
74
45
0
VERTEX
8
Torso
10
0
20
0
30
0
70
128
71
55
72
56
73
48
74
47
0
VERTEX
8
Torso
10
0
20
0
30
0
70
128
71
56
72
54
73
46
74
48
0
VERTEX
8
Torso
10
0
20
0
30
0
70
128
71
57
72
58
73
50
74
49
0
VERTEX
8
Torso
10
0
20
0
30
0
70
128
71
58
72
59
73
51
74
50
0
VERTEX
8
Torso
10
0
20
0
30
0
70
128
71
59
72
60
73
52
74
51
0
VERTEX
8
Torso
10
0
20
0
30
0
70
128
71
60
72
57
73
49
74
52
0
VERTEX
8
Torso
10
0
20
0
30
0
70
128
71
62
72
61
73
53
74
54
0
VERTEX
8
Torso
10
0
20
0
30
0
70
128
71
61
72
63
73
55
74
53
0
VERTEX
8
Torso
10
0
20
0
30
0
70
128
71
63
72
64
73
56
74
55
0
VERTEX
8
Torso
10
0
20
0
30
0
70
128
71
64
72
62
73
54
74
56
0
VERTEX
8
Torso
10
0
20
0
30
0
70
128
71
65
72
66
73
58
74
57
0
VERTEX
8
Torso
10
0
20
0
30
0
70
128
71
66
72
67
73
59
74
58
0
VERTEX
8
Torso
10
0
20
0
30
0
70
128
71
67
72
68
73
60
74
59
0
VERTEX
8
Torso
10
0
20
0
30
0
70
128
71
68
72
65
73
57
74
60
0
VERTEX
8
Torso
10
0
20
0
30
0
70
128
71
70
72
69
73
61
74
62
0
VERTEX
8
Torso
10
0
20
0
30
0
70
128
71
69
72
71
73
63
74
61
0
VERTEX
8
Torso
10
0
20
0
30
0
70
128
71
71
72
72
73
64
74
63
0
VERTEX
8
Torso
10
0
20
0
30
0
70
128
71
72
72
70
73
62
74
64
0
VERTEX
8
Torso
10
0
20
0
30
0
70
128
71
73
72
74
73
66
74
65
0
VERTEX
8
Torso
10
0
20
0
30
0
70
128
71
74
72
75
73
67
74
66
0
VERTEX
8
Torso
10
0
20
0
30
0
70
128
71
75
72
76
73
68
74
67
0
VERTEX
8
Torso
10
0
20
0
30
0
70
128
71
76
72
73
73
65
74
68
0
VERTEX
8
Torso
10
0
20
0
30
0
70
128
71
78
72
77
73
69
74
70
0
VERTEX
8
Torso
10
0
20
0
30
0
70
128
71
77
72
79
73
71
74
69
0
VERTEX
8
Torso
10
0
20
0
30
0
70
128
71
79
72
80
73
72
74
71
0
VERTEX
8
Torso
10
0
20
0
30
0
70
128
71
80
72
78
73
70
74
72
0
VERTEX
8
Torso
10
0
20
0
30
0
70
128
71
81
72
82
73
74
74
73
0
VERTEX
8
Torso
10
0
20
0
30
0
70
128
71
82
72
83
73
75
74
74
0
VERTEX
8
Torso
10
0
20
0
30
0
70
128
71
83
72
84
73
76
74
75
0
VERTEX
8
Torso
10
0
20
0
30
0
70
128
71
84
72
81
73
73
74
76
0
VERTEX
8
Torso
10
0
20
0
30
0
70
128
71
124
72
123
73
122
74
121
0
VERTEX
8
Torso
10
0
20
0
30
0
70
128
71
86
72
87
73
9
74
3
0
VERTEX
8
Torso
10
0
20
0
30
0
70
128
71
128
72
127
73
125
74
126
0
VERTEX
8
Torso
10
0
20
0
30
0
70
128
71
88
72
85
73
1
74
7
0
VERTEX
8
Torso
10
0
20
0
30
0
70
128
71
89
72
90
73
3
74
1
0
VERTEX
8
Torso
10
0
20
0
30
0
70
128
71
90
72
91
73
86
74
3
0
VERTEX
8
Torso
10
0
20
0
30
0
70
128
71
91
72
92
73
85
74
86
0
VERTEX
8
Torso
10
0
20
0
30
0
70
128
71
92
72
89
73
1
74
85
0
VERTEX
8
Torso
10
0
20
0
30
0
70
128
71
94
72
93
73
7
74
9
0
VERTEX
8
Torso
10
0
20
0
30
0
70
128
71
93
72
95
73
88
74
7
0
VERTEX
8
Torso
10
0
20
0
30
0
70
128
71
95
72
96
73
87
74
88
0
VERTEX
8
Torso
10
0
20
0
30
0
70
128
71
96
72
94
73
9
74
87
0
VERTEX
8
Torso
10
0
20
0
30
0
70
128
71
97
72
98
73
90
74
89
0
VERTEX
8
Torso
10
0
20
0
30
0
70
128
71
98
72
99
73
91
74
90
0
VERTEX
8
Torso
10
0
20
0
30
0
70
128
71
99
72
100
73
92
74
91
0
VERTEX
8
Torso
10
0
20
0
30
0
70
128
71
100
72
97
73
89
74
92
0
VERTEX
8
Torso
10
0
20
0
30
0
70
128
71
102
72
101
73
93
74
94
0
VERTEX
8
Torso
10
0
20
0
30
0
70
128
71
101
72
103
73
95
74
93
0
VERTEX
8
Torso
10
0
20
0
30
0
70
128
71
103
72
104
73
96
74
95
0
VERTEX
8
Torso
10
0
20
0
30
0
70
128
71
104
72
102
73
94
74
96
0
VERTEX
8
Torso
10
0
20
0
30
0
70
128
71
105
72
106
73
98
74
97
0
VERTEX
8
Torso
10
0
20
0
30
0
70
128
71
106
72
107
73
99
74
98
0
VERTEX
8
Torso
10
0
20
0
30
0
70
128
71
107
72
108
73
100
74
99
0
VERTEX
8
Torso
10
0
20
0
30
0
70
128
71
108
72
105
73
97
74
100
0
VERTEX
8
Torso
10
0
20
0
30
0
70
128
71
110
72
109
73
101
74
102
0
VERTEX
8
Torso
10
0
20
0
30
0
70
128
71
109
72
111
73
103
74
101
0
VERTEX
8
Torso
10
0
20
0
30
0
70
128
71
111
72
112
73
104
74
103
0
VERTEX
8
Torso
10
0
20
0
30
0
70
128
71
112
72
110
73
102
74
104
0
VERTEX
8
Torso
10
0
20
0
30
0
70
128
71
113
72
114
73
106
74
105
0
VERTEX
8
Torso
10
0
20
0
30
0
70
128
71
114
72
115
73
107
74
106
0
VERTEX
8
Torso
10
0
20
0
30
0
70
128
71
115
72
116
73
108
74
107
0
VERTEX
8
Torso
10
0
20
0
30
0
70
128
71
116
72
113
73
105
74
108
0
VERTEX
8
Torso
10
0
20
0
30
0
70
128
71
118
72
117
73
109
74
110
0
VERTEX
8
Torso
10
0
20
0
30
0
70
128
71
117
72
119
73
111
74
109
0
VERTEX
8
Torso
10
0
20
0
30
0
70
128
71
119
72
120
73
112
74
111
0
VERTEX
8
Torso
10
0
20
0
30
0
70
128
71
120
72
118
73
110
74
112
0
VERTEX
8
Torso
10
0
20
0
30
0
70
128
71
121
72
122
73
114
74
113
0
VERTEX
8
Torso
10
0
20
0
30
0
70
128
71
122
72
123
73
115
74
114
0
VERTEX
8
Torso
10
0
20
0
30
0
70
128
71
123
72
124
73
116
74
115
0
VERTEX
8
Torso
10
0
20
0
30
0
70
128
71
124
72
121
73
113
74
116
0
VERTEX
8
Torso
10
0
20
0
30
0
70
128
71
126
72
125
73
117
74
118
0
VERTEX
8
Torso
10
0
20
0
30
0
70
128
71
125
72
127
73
119
74
117
0
VERTEX
8
Torso
10
0
20
0
30
0
70
128
71
127
72
128
73
120
74
119
0
VERTEX
8
Torso
10
0
20
0
30
0
70
128
71
128
72
126
73
118
74
120
0
SEQEND
0
ENDSEC
0
EOF