0
SECTION
2
HEADER
999
DXF File Generated With Silo
0
ENDSEC
0
SECTION
2
TABLES
0
ENDSEC
0
SECTION
2
BLOCKS
0
ENDSEC
0
SECTION
2
ENTITIES
0
POLYLINE
8
Head
66
1
70
64
62
256
0
VERTEX
8
Head
10
0.405986
20
0.299881
30
2.19306
70
192
0
VERTEX
8
Head
10
0.181378
20
-0.254328
30
2.23022
70
192
0
VERTEX
8
Head
10
0.515603
20
0.396804
30
2.43642
70
192
0
VERTEX
8
Head
10
0.205812
20
-0.514992
30
2.43642
70
192
0
VERTEX
8
Head
10
0.405986
20
0.299881
30
3.35944
70
192
0
VERTEX
8
Head
10
0.162056
20
-0.418069
30
3.35944
70
192
0
VERTEX
8
Head
10
-0.405986
20
0.299881
30
2.19306
70
192
0
VERTEX
8
Head
10
-0.181378
20
-0.254328
30
2.23022
70
192
0
VERTEX
8
Head
10
-0.515603
20
0.396804
30
2.43642
70
192
0
VERTEX
8
Head
10
-0.205812
20
-0.514992
30
2.43642
70
192
0
VERTEX
8
Head
10
-0.405986
20
0.299881
30
3.35944
70
192
0
VERTEX
8
Head
10
-0.162056
20
-0.418069
30
3.35944
70
192
0
VERTEX
8
Head
10
0.405986
20
0.299881
30
2.04035
70
192
0
VERTEX
8
Head
10
0.36741
20
-0.256493
30
2.04035
70
192
0
VERTEX
8
Head
10
-0.405986
20
0.299881
30
2.04035
70
192
0
VERTEX
8
Head
10
-0.36741
20
-0.256493
30
2.04035
70
192
0
VERTEX
8
Head
10
0
20
0
30
0
70
128
71
5
72
6
73
12
74
11
0
VERTEX
8
Head
10
0
20
0
30
0
70
128
71
2
72
1
73
13
74
14
0
VERTEX
8
Head
10
0
20
0
30
0
70
128
71
16
72
15
73
7
74
8
0
VERTEX
8
Head
10
0
20
0
30
0
70
128
71
13
72
1
73
7
74
15
0
VERTEX
8
Head
10
0
20
0
30
0
70
128
71
2
72
14
73
16
74
8
0
VERTEX
8
Head
10
0
20
0
30
0
70
128
71
4
72
3
73
1
74
2
0
VERTEX
8
Head
10
0
20
0
30
0
70
128
71
8
72
7
73
9
74
10
0
VERTEX
8
Head
10
0
20
0
30
0
70
128
71
1
72
3
73
9
74
7
0
VERTEX
8
Head
10
0
20
0
30
0
70
128
71
4
72
2
73
8
74
10
0
VERTEX
8
Head
10
0
20
0
30
0
70
128
71
6
72
5
73
3
74
4
0
VERTEX
8
Head
10
0
20
0
30
0
70
128
71
10
72
9
73
11
74
12
0
VERTEX
8
Head
10
0
20
0
30
0
70
128
71
3
72
5
73
11
74
9
0
VERTEX
8
Head
10
0
20
0
30
0
70
128
71
6
72
4
73
10
74
12
0
VERTEX
8
Head
10
0
20
0
30
0
70
128
71
13
72
15
73
16
74
14
0
SEQEND
0
POLYLINE
8
Leg.Right
66
1
70
64
62
256
0
VERTEX
8
Leg.Right
10
-0.912176
20
0.230846
30
-0.276441
70
192
0
VERTEX
8
Leg.Right
10
-0.925485
20
-0.184813
30
-0.289044
70
192
0
VERTEX
8
Leg.Right
10
-0.614401
20
0.234849
30
-0.531523
70
192
0
VERTEX
8
Leg.Right
10
-0.61582
20
-0.178633
30
-0.53247
70
192
0
VERTEX
8
Leg.Right
10
-0.955457
20
0.233321
30
-0.401616
70
192
0
VERTEX
8
Leg.Right
10
-0.955457
20
-0.17967
30
-0.397799
70
192
0
VERTEX
8
Leg.Right
10
-0.641047
20
0.235641
30
-0.591572
70
192
0
VERTEX
8
Leg.Right
10
-0.641048
20
-0.177351
30
-0.587756
70
192
0
VERTEX
8
Leg.Right
10
-0.982155
20
0.2359
30
-0.55442
70
192
0
VERTEX
8
Leg.Right
10
-0.982156
20
-0.177091
30
-0.554419
70
192
0
VERTEX
8
Leg.Right
10
-0.660394
20
0.236095
30
-0.628839
70
192
0
VERTEX
8
Leg.Right
10
-0.660395
20
-0.176896
30
-0.628835
70
192
0
VERTEX
8
Leg.Right
10
-0.986988
20
0.236334
30
-0.676603
70
192
0
VERTEX
8
Leg.Right
10
-0.986988
20
-0.176658
30
-0.676603
70
192
0
VERTEX
8
Leg.Right
10
-0.665235
20
0.236334
30
-0.708844
70
192
0
VERTEX
8
Leg.Right
10
-0.665235
20
-0.176658
30
-0.708844
70
192
0
VERTEX
8
Leg.Right
10
-1.07083
20
0.236334
30
-1.15708
70
192
0
VERTEX
8
Leg.Right
10
-1.07083
20
-0.176658
30
-1.15708
70
192
0
VERTEX
8
Leg.Right
10
-0.749081
20
0.236334
30
-1.16036
70
192
0
VERTEX
8
Leg.Right
10
-0.749081
20
-0.176658
30
-1.16036
70
192
0
VERTEX
8
Leg.Right
10
-0.496883
20
0.425849
30
0.493067
70
192
0
VERTEX
8
Leg.Right
10
-0.614926
20
-0.36138
30
0.498908
70
192
0
VERTEX
8
Leg.Right
10
-0.175807
20
0.359867
30
-0.030456
70
192
0
VERTEX
8
Leg.Right
10
-0.174146
20
-0.358976
30
-0.02692
70
192
0
VERTEX
8
Leg.Right
10
0
20
0
30
0
70
128
71
20
72
19
73
17
74
18
0
VERTEX
8
Leg.Right
10
0
20
0
30
0
70
128
71
2
72
1
73
21
74
22
0
VERTEX
8
Leg.Right
10
0
20
0
30
0
70
128
71
1
72
3
73
23
74
21
0
VERTEX
8
Leg.Right
10
0
20
0
30
0
70
128
71
3
72
4
73
24
74
23
0
VERTEX
8
Leg.Right
10
0
20
0
30
0
70
128
71
4
72
2
73
22
74
24
0
VERTEX
8
Leg.Right
10
0
20
0
30
0
70
128
71
6
72
5
73
1
74
2
0
VERTEX
8
Leg.Right
10
0
20
0
30
0
70
128
71
5
72
7
73
3
74
1
0
VERTEX
8
Leg.Right
10
0
20
0
30
0
70
128
71
7
72
8
73
4
74
3
0
VERTEX
8
Leg.Right
10
0
20
0
30
0
70
128
71
8
72
6
73
2
74
4
0
VERTEX
8
Leg.Right
10
0
20
0
30
0
70
128
71
10
72
9
73
5
74
6
0
VERTEX
8
Leg.Right
10
0
20
0
30
0
70
128
71
9
72
11
73
7
74
5
0
VERTEX
8
Leg.Right
10
0
20
0
30
0
70
128
71
11
72
12
73
8
74
7
0
VERTEX
8
Leg.Right
10
0
20
0
30
0
70
128
71
12
72
10
73
6
74
8
0
VERTEX
8
Leg.Right
10
0
20
0
30
0
70
128
71
14
72
13
73
9
74
10
0
VERTEX
8
Leg.Right
10
0
20
0
30
0
70
128
71
13
72
15
73
11
74
9
0
VERTEX
8
Leg.Right
10
0
20
0
30
0
70
128
71
15
72
16
73
12
74
11
0
VERTEX
8
Leg.Right
10
0
20
0
30
0
70
128
71
16
72
14
73
10
74
12
0
VERTEX
8
Leg.Right
10
0
20
0
30
0
70
128
71
18
72
17
73
13
74
14
0
VERTEX
8
Leg.Right
10
0
20
0
30
0
70
128
71
17
72
19
73
15
74
13
0
VERTEX
8
Leg.Right
10
0
20
0
30
0
70
128
71
19
72
20
73
16
74
15
0
VERTEX
8
Leg.Right
10
0
20
0
30
0
70
128
71
20
72
18
73
14
74
16
0
VERTEX
8
Leg.Right
10
0
20
0
30
0
70
128
71
21
72
23
73
24
74
22
0
SEQEND
0
POLYLINE
8
Arm.Right
66
1
70
64
62
256
0
VERTEX
8
Arm.Right
10
-1.20923
20
0.190541
30
1.80259
70
192
0
VERTEX
8
Arm.Right
10
-1.2088
20
-0.19416
30
1.79896
70
192
0
VERTEX
8
Arm.Right
10
-1.0908
20
0.11645
30
2.02767
70
192
0
VERTEX
8
Arm.Right
10
-1.07582
20
-0.099601
30
2.02767
70
192
0
VERTEX
8
Arm.Right
10
-1.30087
20
0.196073
30
1.79787
70
192
0
VERTEX
8
Arm.Right
10
-1.26738
20
-0.195726
30
1.82279
70
192
0
VERTEX
8
Arm.Right
10
-1.14124
20
0.125385
30
2.08331
70
192
0
VERTEX
8
Arm.Right
10
-1.12686
20
-0.101209
30
2.07998
70
192
0
VERTEX
8
Arm.Right
10
-1.3568
20
0.159555
30
1.85742
70
192
0
VERTEX
8
Arm.Right
10
-1.35667
20
-0.148674
30
1.86844
70
192
0
VERTEX
8
Arm.Right
10
-1.22617
20
0.109696
30
2.09614
70
192
0
VERTEX
8
Arm.Right
10
-1.19648
20
-0.0889548
30
2.08037
70
192
0
VERTEX
8
Arm.Right
10
-1.63128
20
0.154475
30
2.00592
70
192
0
VERTEX
8
Arm.Right
10
-1.63128
20
-0.154475
30
2.00592
70
192
0
VERTEX
8
Arm.Right
10
-1.50454
20
0.125075
30
2.25158
70
192
0
VERTEX
8
Arm.Right
10
-1.48845
20
-0.106979
30
2.25158
70
192
0
VERTEX
8
Arm.Right
10
-1.7823
20
0.263936
30
2.04142
70
192
0
VERTEX
8
Arm.Right
10
-1.7823
20
-0.263936
30
2.04142
70
192
0
VERTEX
8
Arm.Right
10
-1.62189
20
0.158299
30
2.35233
70
192
0
VERTEX
8
Arm.Right
10
-1.60153
20
-0.135395
30
2.35233
70
192
0
VERTEX
8
Arm.Right
10
-1.96317
20
0.183608
30
2.19625
70
192
0
VERTEX
8
Arm.Right
10
-1.96317
20
-0.183608
30
2.19625
70
192
0
VERTEX
8
Arm.Right
10
-1.8492
20
0.113859
30
2.40945
70
192
0
VERTEX
8
Arm.Right
10
-1.83742
20
-0.0941879
30
2.41253
70
192
0
VERTEX
8
Arm.Right
10
-0.697606
20
0.337838
30
1.42521
70
192
0
VERTEX
8
Arm.Right
10
-0.697606
20
-0.337838
30
1.42521
70
192
0
VERTEX
8
Arm.Right
10
-0.492285
20
0.202622
30
1.82317
70
192
0
VERTEX
8
Arm.Right
10
-0.46622
20
-0.173306
30
1.82317
70
192
0
VERTEX
8
Arm.Right
10
0
20
0
30
0
70
128
71
22
72
21
73
23
74
24
0
VERTEX
8
Arm.Right
10
0
20
0
30
0
70
128
71
26
72
25
73
1
74
2
0
VERTEX
8
Arm.Right
10
0
20
0
30
0
70
128
71
25
72
27
73
3
74
1
0
VERTEX
8
Arm.Right
10
0
20
0
30
0
70
128
71
27
72
28
73
4
74
3
0
VERTEX
8
Arm.Right
10
0
20
0
30
0
70
128
71
28
72
26
73
2
74
4
0
VERTEX
8
Arm.Right
10
0
20
0
30
0
70
128
71
2
72
1
73
5
74
6
0
VERTEX
8
Arm.Right
10
0
20
0
30
0
70
128
71
1
72
3
73
7
74
5
0
VERTEX
8
Arm.Right
10
0
20
0
30
0
70
128
71
3
72
4
73
8
74
7
0
VERTEX
8
Arm.Right
10
0
20
0
30
0
70
128
71
4
72
2
73
6
74
8
0
VERTEX
8
Arm.Right
10
0
20
0
30
0
70
128
71
6
72
5
73
9
74
10
0
VERTEX
8
Arm.Right
10
0
20
0
30
0
70
128
71
5
72
7
73
11
74
9
0
VERTEX
8
Arm.Right
10
0
20
0
30
0
70
128
71
7
72
8
73
12
74
11
0
VERTEX
8
Arm.Right
10
0
20
0
30
0
70
128
71
8
72
6
73
10
74
12
0
VERTEX
8
Arm.Right
10
0
20
0
30
0
70
128
71
10
72
9
73
13
74
14
0
VERTEX
8
Arm.Right
10
0
20
0
30
0
70
128
71
9
72
11
73
15
74
13
0
VERTEX
8
Arm.Right
10
0
20
0
30
0
70
128
71
11
72
12
73
16
74
15
0
VERTEX
8
Arm.Right
10
0
20
0
30
0
70
128
71
12
72
10
73
14
74
16
0
VERTEX
8
Arm.Right
10
0
20
0
30
0
70
128
71
14
72
13
73
17
74
18
0
VERTEX
8
Arm.Right
10
0
20
0
30
0
70
128
71
13
72
15
73
19
74
17
0
VERTEX
8
Arm.Right
10
0
20
0
30
0
70
128
71
15
72
16
73
20
74
19
0
VERTEX
8
Arm.Right
10
0
20
0
30
0
70
128
71
16
72
14
73
18
74
20
0
VERTEX
8
Arm.Right
10
0
20
0
30
0
70
128
71
18
72
17
73
21
74
22
0
VERTEX
8
Arm.Right
10
0
20
0
30
0
70
128
71
17
72
19
73
23
74
21
0
VERTEX
8
Arm.Right
10
0
20
0
30
0
70
128
71
19
72
20
73
24
74
23
0
VERTEX
8
Arm.Right
10
0
20
0
30
0
70
128
71
20
72
18
73
22
74
24
0
VERTEX
8
Arm.Right
10
0
20
0
30
0
70
128
71
26
72
28
73
27
74
25
0
SEQEND
0
POLYLINE
8
Arm.Left
66
1
70
64
62
256
0
VERTEX
8
Arm.Left
10
1.20923
20
0.190541
30
1.80259
70
192
0
VERTEX
8
Arm.Left
10
1.2088
20
-0.19416
30
1.79896
70
192
0
VERTEX
8
Arm.Left
10
1.0908
20
0.11645
30
2.02767
70
192
0
VERTEX
8
Arm.Left
10
1.07582
20
-0.099601
30
2.02767
70
192
0
VERTEX
8
Arm.Left
10
1.30087
20
0.196073
30
1.79787
70
192
0
VERTEX
8
Arm.Left
10
1.26738
20
-0.195726
30
1.82279
70
192
0
VERTEX
8
Arm.Left
10
1.14124
20
0.125385
30
2.08331
70
192
0
VERTEX
8
Arm.Left
10
1.12686
20
-0.101209
30
2.07998
70
192
0
VERTEX
8
Arm.Left
10
1.3568
20
0.159555
30
1.85742
70
192
0
VERTEX
8
Arm.Left
10
1.35667
20
-0.148674
30
1.86844
70
192
0
VERTEX
8
Arm.Left
10
1.22617
20
0.109696
30
2.09614
70
192
0
VERTEX
8
Arm.Left
10
1.19648
20
-0.0889548
30
2.08037
70
192
0
VERTEX
8
Arm.Left
10
1.63128
20
0.154475
30
2.00592
70
192
0
VERTEX
8
Arm.Left
10
1.63128
20
-0.154475
30
2.00592
70
192
0
VERTEX
8
Arm.Left
10
1.50454
20
0.125075
30
2.25158
70
192
0
VERTEX
8
Arm.Left
10
1.48845
20
-0.106979
30
2.25158
70
192
0
VERTEX
8
Arm.Left
10
1.7823
20
0.263936
30
2.04142
70
192
0
VERTEX
8
Arm.Left
10
1.7823
20
-0.263936
30
2.04142
70
192
0
VERTEX
8
Arm.Left
10
1.62189
20
0.158299
30
2.35233
70
192
0
VERTEX
8
Arm.Left
10
1.60153
20
-0.135395
30
2.35233
70
192
0
VERTEX
8
Arm.Left
10
1.96317
20
0.183608
30
2.19625
70
192
0
VERTEX
8
Arm.Left
10
1.96317
20
-0.183608
30
2.19625
70
192
0
VERTEX
8
Arm.Left
10
1.8492
20
0.113859
30
2.40945
70
192
0
VERTEX
8
Arm.Left
10
1.83742
20
-0.0941879
30
2.41253
70
192
0
VERTEX
8
Arm.Left
10
0.697606
20
0.337838
30
1.42521
70
192
0
VERTEX
8
Arm.Left
10
0.697606
20
-0.337838
30
1.42521
70
192
0
VERTEX
8
Arm.Left
10
0.492285
20
0.202622
30
1.82317
70
192
0
VERTEX
8
Arm.Left
10
0.46622
20
-0.173306
30
1.82317
70
192
0
VERTEX
8
Arm.Left
10
0
20
0
30
0
70
128
71
24
72
23
73
21
74
22
0
VERTEX
8
Arm.Left
10
0
20
0
30
0
70
128
71
2
72
1
73
25
74
26
0
VERTEX
8
Arm.Left
10
0
20
0
30
0
70
128
71
1
72
3
73
27
74
25
0
VERTEX
8
Arm.Left
10
0
20
0
30
0
70
128
71
3
72
4
73
28
74
27
0
VERTEX
8
Arm.Left
10
0
20
0
30
0
70
128
71
4
72
2
73
26
74
28
0
VERTEX
8
Arm.Left
10
0
20
0
30
0
70
128
71
6
72
5
73
1
74
2
0
VERTEX
8
Arm.Left
10
0
20
0
30
0
70
128
71
5
72
7
73
3
74
1
0
VERTEX
8
Arm.Left
10
0
20
0
30
0
70
128
71
7
72
8
73
4
74
3
0
VERTEX
8
Arm.Left
10
0
20
0
30
0
70
128
71
8
72
6
73
2
74
4
0
VERTEX
8
Arm.Left
10
0
20
0
30
0
70
128
71
10
72
9
73
5
74
6
0
VERTEX
8
Arm.Left
10
0
20
0
30
0
70
128
71
9
72
11
73
7
74
5
0
VERTEX
8
Arm.Left
10
0
20
0
30
0
70
128
71
11
72
12
73
8
74
7
0
VERTEX
8
Arm.Left
10
0
20
0
30
0
70
128
71
12
72
10
73
6
74
8
0
VERTEX
8
Arm.Left
10
0
20
0
30
0
70
128
71
14
72
13
73
9
74
10
0
VERTEX
8
Arm.Left
10
0
20
0
30
0
70
128
71
13
72
15
73
11
74
9
0
VERTEX
8
Arm.Left
10
0
20
0
30
0
70
128
71
15
72
16
73
12
74
11
0
VERTEX
8
Arm.Left
10
0
20
0
30
0
70
128
71
16
72
14
73
10
74
12
0
VERTEX
8
Arm.Left
10
0
20
0
30
0
70
128
71
18
72
17
73
13
74
14
0
VERTEX
8
Arm.Left
10
0
20
0
30
0
70
128
71
17
72
19
73
15
74
13
0
VERTEX
8
Arm.Left
10
0
20
0
30
0
70
128
71
19
72
20
73
16
74
15
0
VERTEX
8
Arm.Left
10
0
20
0
30
0
70
128
71
20
72
18
73
14
74
16
0
VERTEX
8
Arm.Left
10
0
20
0
30
0
70
128
71
22
72
21
73
17
74
18
0
VERTEX
8
Arm.Left
10
0
20
0
30
0
70
128
71
21
72
23
73
19
74
17
0
VERTEX
8
Arm.Left
10
0
20
0
30
0
70
128
71
23
72
24
73
20
74
19
0
VERTEX
8
Arm.Left
10
0
20
0
30
0
70
128
71
24
72
22
73
18
74
20
0
VERTEX
8
Arm.Left
10
0
20
0
30
0
70
128
71
25
72
27
73
28
74
26
0
SEQEND
0
POLYLINE
8
Leg.Left
66
1
70
64
62
256
0
VERTEX
8
Leg.Left
10
0.912176
20
0.230846
30
-0.276441
70
192
0
VERTEX
8
Leg.Left
10
0.925485
20
-0.184813
30
-0.289044
70
192
0
VERTEX
8
Leg.Left
10
0.61582
20
-0.178633
30
-0.53247
70
192
0
VERTEX
8
Leg.Left
10
0.614401
20
0.234849
30
-0.531523
70
192
0
VERTEX
8
Leg.Left
10
0.955457
20
0.233321
30
-0.401616
70
192
0
VERTEX
8
Leg.Left
10
0.955457
20
-0.17967
30
-0.397799
70
192
0
VERTEX
8
Leg.Left
10
0.641048
20
-0.177351
30
-0.587756
70
192
0
VERTEX
8
Leg.Left
10
0.641047
20
0.235641
30
-0.591572
70
192
0
VERTEX
8
Leg.Left
10
0.982155
20
0.2359
30
-0.55442
70
192
0
VERTEX
8
Leg.Left
10
0.982156
20
-0.177091
30
-0.554419
70
192
0
VERTEX
8
Leg.Left
10
0.660395
20
-0.176896
30
-0.628835
70
192
0
VERTEX
8
Leg.Left
10
0.660394
20
0.236095
30
-0.628839
70
192
0
VERTEX
8
Leg.Left
10
0.986988
20
0.236334
30
-0.676603
70
192
0
VERTEX
8
Leg.Left
10
0.986988
20
-0.176658
30
-0.676603
70
192
0
VERTEX
8
Leg.Left
10
0.665235
20
-0.176658
30
-0.708844
70
192
0
VERTEX
8
Leg.Left
10
0.665235
20
0.236334
30
-0.708844
70
192
0
VERTEX
8
Leg.Left
10
1.07083
20
0.236334
30
-1.15708
70
192
0
VERTEX
8
Leg.Left
10
1.07083
20
-0.176658
30
-1.15708
70
192
0
VERTEX
8
Leg.Left
10
0.749081
20
-0.176658
30
-1.16036
70
192
0
VERTEX
8
Leg.Left
10
0.749081
20
0.236334
30
-1.16036
70
192
0
VERTEX
8
Leg.Left
10
0.175807
20
0.359867
30
-0.030456
70
192
0
VERTEX
8
Leg.Left
10
0.174146
20
-0.358976
30
-0.02692
70
192
0
VERTEX
8
Leg.Left
10
0.614926
20
-0.36138
30
0.498908
70
192
0
VERTEX
8
Leg.Left
10
0.496883
20
0.425849
30
0.493067
70
192
0
VERTEX
8
Leg.Left
10
0
20
0
30
0
70
128
71
20
72
19
73
18
74
17
0
VERTEX
8
Leg.Left
10
0
20
0
30
0
70
128
71
1
72
2
73
23
74
24
0
VERTEX
8
Leg.Left
10
0
20
0
30
0
70
128
71
2
72
3
73
22
74
23
0
VERTEX
8
Leg.Left
10
0
20
0
30
0
70
128
71
3
72
4
73
21
74
22
0
VERTEX
8
Leg.Left
10
0
20
0
30
0
70
128
71
4
72
1
73
24
74
21
0
VERTEX
8
Leg.Left
10
0
20
0
30
0
70
128
71
5
72
6
73
2
74
1
0
VERTEX
8
Leg.Left
10
0
20
0
30
0
70
128
71
6
72
7
73
3
74
2
0
VERTEX
8
Leg.Left
10
0
20
0
30
0
70
128
71
7
72
8
73
4
74
3
0
VERTEX
8
Leg.Left
10
0
20
0
30
0
70
128
71
8
72
5
73
1
74
4
0
VERTEX
8
Leg.Left
10
0
20
0
30
0
70
128
71
9
72
10
73
6
74
5
0
VERTEX
8
Leg.Left
10
0
20
0
30
0
70
128
71
10
72
11
73
7
74
6
0
VERTEX
8
Leg.Left
10
0
20
0
30
0
70
128
71
11
72
12
73
8
74
7
0
VERTEX
8
Leg.Left
10
0
20
0
30
0
70
128
71
12
72
9
73
5
74
8
0
VERTEX
8
Leg.Left
10
0
20
0
30
0
70
128
71
13
72
14
73
10
74
9
0
VERTEX
8
Leg.Left
10
0
20
0
30
0
70
128
71
14
72
15
73
11
74
10
0
VERTEX
8
Leg.Left
10
0
20
0
30
0
70
128
71
15
72
16
73
12
74
11
0
VERTEX
8
Leg.Left
10
0
20
0
30
0
70
128
71
16
72
13
73
9
74
12
0
VERTEX
8
Leg.Left
10
0
20
0
30
0
70
128
71
17
72
18
73
14
74
13
0
VERTEX
8
Leg.Left
10
0
20
0
30
0
70
128
71
18
72
19
73
15
74
14
0
VERTEX
8
Leg.Left
10
0
20
0
30
0
70
128
71
19
72
20
73
16
74
15
0
VERTEX
8
Leg.Left
10
0
20
0
30
0
70
128
71
20
72
17
73
13
74
16
0
VERTEX
8
Leg.Left
10
0
20
0
30
0
70
128
71
21
72
24
73
23
74
22
0
SEQEND
0
POLYLINE
8
Torso
66
1
70
64
62
256
0
VERTEX
8
Torso
10
0.550109
20
0.569502
30
1.18851
70
192
0
VERTEX
8
Torso
10
0.471898
20
-0.504255
30
1.16472
70
192
0
VERTEX
8
Torso
10
0.36741
20
-0.256493
30
1.89635
70
192
0
VERTEX
8
Torso
10
0.405986
20
0.299881
30
1.89635
70
192
0
VERTEX
8
Torso
10
0.697606
20
-0.337838
30
1.42521
70
192
0
VERTEX
8
Torso
10
0.697606
20
0.337838
30
1.42521
70
192
0
VERTEX
8
Torso
10
0.492285
20
0.202622
30
1.82317
70
192
0
VERTEX
8
Torso
10
0.46622
20
-0.173306
30
1.82317
70
192
0
VERTEX
8
Torso
10
0.174146
20
-0.358976
30
-0.02692
70
192
0
VERTEX
8
Torso
10
0.175807
20
0.359867
30
-0.030456
70
192
0
VERTEX
8
Torso
10
0.614926
20
-0.36138
30
0.498908
70
192
0
VERTEX
8
Torso
10
0.496883
20
0.425849
30
0.493068
70
192
0
VERTEX
8
Torso
10
-0.550109
20
0.569502
30
1.18851
70
192
0
VERTEX
8
Torso
10
-0.471898
20
-0.504255
30
1.16472
70
192
0
VERTEX
8
Torso
10
-0.36741
20
-0.256493
30
1.89635
70
192
0
VERTEX
8
Torso
10
-0.405986
20
0.299881
30
1.89635
70
192
0
VERTEX
8
Torso
10
-0.697606
20
-0.337838
30
1.42521
70
192
0
VERTEX
8
Torso
10
-0.697606
20
0.337838
30
1.42521
70
192
0
VERTEX
8
Torso
10
-0.492285
20
0.202622
30
1.82317
70
192
0
VERTEX
8
Torso
10
-0.46622
20
-0.173306
30
1.82317
70
192
0
VERTEX
8
Torso
10
-0.174146
20
-0.358976
30
-0.02692
70
192
0
VERTEX
8
Torso
10
-0.175807
20
0.359867
30
-0.030456
70
192
0
VERTEX
8
Torso
10
-0.614926
20
-0.36138
30
0.498908
70
192
0
VERTEX
8
Torso
10
-0.496883
20
0.425849
30
0.493068
70
192
0
VERTEX
8
Torso
10
0.36741
20
-0.256493
30
2.04035
70
192
0
VERTEX
8
Torso
10
0.405986
20
0.299881
30
2.04035
70
192
0
VERTEX
8
Torso
10
-0.405986
20
0.299881
30
2.04035
70
192
0
VERTEX
8
Torso
10
-0.36741
20
-0.256493
30
2.04035
70
192
0
VERTEX
8
Torso
10
0
20
0
30
0
70
128
71
12
72
1
73
13
74
24
0
VERTEX
8
Torso
10
0
20
0
30
0
70
128
71
2
72
11
73
23
74
14
0
VERTEX
8
Torso
10
0
20
0
30
0
70
128
71
9
72
10
73
22
74
21
0
VERTEX
8
Torso
10
0
20
0
30
0
70
128
71
1
72
12
73
11
74
2
0
VERTEX
8
Torso
10
0
20
0
30
0
70
128
71
14
72
23
73
24
74
13
0
VERTEX
8
Torso
10
0
20
0
30
0
70
128
71
3
72
2
73
14
74
15
0
VERTEX
8
Torso
10
0
20
0
30
0
70
128
71
1
72
4
73
16
74
13
0
VERTEX
8
Torso
10
0
20
0
30
0
70
128
71
25
72
26
73
4
74
3
0
VERTEX
8
Torso
10
0
20
0
30
0
70
128
71
15
72
16
73
27
74
28
0
VERTEX
8
Torso
10
0
20
0
30
0
70
128
71
4
72
26
73
27
74
16
0
VERTEX
8
Torso
10
0
20
0
30
0
70
128
71
25
72
3
73
15
74
28
0
VERTEX
8
Torso
10
0
20
0
30
0
70
128
71
5
72
6
73
1
74
2
0
VERTEX
8
Torso
10
0
20
0
30
0
70
128
71
14
72
13
73
18
74
17
0
VERTEX
8
Torso
10
0
20
0
30
0
70
128
71
6
72
7
73
4
74
1
0
VERTEX
8
Torso
10
0
20
0
30
0
70
128
71
13
72
16
73
19
74
18
0
VERTEX
8
Torso
10
0
20
0
30
0
70
128
71
7
72
8
73
3
74
4
0
VERTEX
8
Torso
10
0
20
0
30
0
70
128
71
16
72
15
73
20
74
19
0
VERTEX
8
Torso
10
0
20
0
30
0
70
128
71
8
72
5
73
2
74
3
0
VERTEX
8
Torso
10
0
20
0
30
0
70
128
71
15
72
14
73
17
74
20
0
VERTEX
8
Torso
10
0
20
0
30
0
70
128
71
11
72
9
73
21
74
23
0
VERTEX
8
Torso
10
0
20
0
30
0
70
128
71
10
72
12
73
24
74
22
0
VERTEX
8
Torso
10
0
20
0
30
0
70
128
71
5
72
8
73
7
74
6
0
VERTEX
8
Torso
10
0
20
0
30
0
70
128
71
25
72
28
73
27
74
26
0
VERTEX
8
Torso
10
0
20
0
30
0
70
128
71
17
72
18
73
19
74
20
0
VERTEX
8
Torso
10
0
20
0
30
0
70
128
71
22
72
24
73
23
74
21
0
VERTEX
8
Torso
10
0
20
0
30
0
70
128
71
9
72
11
73
12
74
10
0
SEQEND
0
ENDSEC
0
EOF